<svg xmlns="http://www.w3.org/2000/svg" viewBox="0 0 1024 1024" role="img" aria-labelledby="title desc">
  <title id="title">Icone LePraMim</title>
  <desc id="desc">Balao de conversa com um livro aberto e ondas sonoras.</desc>
  <rect width="1024" height="1024" rx="224" fill="#1565C0"/>
  <circle cx="806" cy="230" r="92" fill="#FF9800"/>
  <path fill="#FFFFFF" d="M214 238h596c66 0 120 54 120 120v298c0 66-54 120-120 120H516L358 884c-27 19-65 0-65-33v-75h-79c-66 0-120-54-120-120V358c0-66 54-120 120-120Z"/>
  <path fill="#FF9800" d="M292 414c85-14 158 0 220 44v216c-62-44-135-58-220-44V414Z"/>
  <path fill="#FF9800" d="M512 458c62-44 135-58 220-44v216c-85-14-158 0-220 44V458Z"/>
  <path fill="none" stroke="#1565C0" stroke-linecap="round" stroke-linejoin="round" stroke-width="28" d="M292 414c85-14 158 0 220 44m0 0c62-44 135-58 220-44M292 414v216c85-14 158 0 220 44m0-216v216m0 0c62-44 135-58 220-44V414"/>
  <path fill="none" stroke="#FFFFFF" stroke-linecap="round" stroke-width="18" d="M346 486c42-2 78 4 110 18M346 550c42-2 78 4 110 18M568 504c32-14 68-20 110-18M568 568c32-14 68-20 110-18"/>
  <path fill="none" stroke="#1565C0" stroke-linecap="round" stroke-width="32" d="M744 472c30 28 30 76 0 104"/>
  <path fill="none" stroke="#FF9800" stroke-linecap="round" stroke-width="32" d="M802 430c68 70 68 188 0 258"/>
</svg>
