<svg xmlns="http://www.w3.org/2000/svg" width="512" height="512" viewBox="0 0 108 108">
  <path d="M20,4H88C96.8,4 104,11.2 104,20V88C104,96.8 96.8,104 88,104H20C11.2,104 4,96.8 4,88V20C4,11.2 11.2,4 20,4Z" fill="#0057D9"/>
  <path d="M104,34V88C104,96.8 96.8,104 88,104H30L104,30Z" fill="#003B8F" fill-opacity="0.28"/>
  <path d="M54,15C35.2,15 20.5,27.6 20.5,43.3C20.5,55.6 29.5,66 42.4,70L54,82.4L65.6,70C78.5,66 87.5,55.6 87.5,43.3C87.5,27.6 72.8,15 54,15Z" fill="#FFFFFF"/>
  <path d="M17,66C30.5,61.2 42.5,62.9 52,71.7V91.5C41.9,84.2 30,82.4 17,86.9Z" fill="#FFFFFF"/>
  <path d="M91,66C77.5,61.2 65.5,62.9 56,71.7V91.5C66.1,84.2 78,82.4 91,86.9Z" fill="#FFFFFF"/>
  <path d="M17,66C30.5,61.2 42.5,62.9 52,71.7V91.5M91,66C77.5,61.2 65.5,62.9 56,71.7V91.5M54,72V93" fill="none" stroke="#D9ECFF" stroke-width="3.8" stroke-linecap="round" stroke-linejoin="round"/>
  <path d="M41.5,39.5H50.5L65,29V62L50.5,51.5H41.5C38.7,51.5 36.5,49.3 36.5,46.5V44.5C36.5,41.7 38.7,39.5 41.5,39.5Z" fill="#16B957"/>
  <path d="M70,38C75,43.2 75,49.7 70,55M78,31C87,40.2 87,52.8 78,62" fill="none" stroke="#0A8F3D" stroke-width="4.8" stroke-linecap="round"/>
</svg>
